<svg height="16" width="16" xmlns="http://www.w3.org/2000/svg"><g fill="#241f31" transform="translate(-160 -172)"><path d="M162 185h2v1h-2z" opacity=".5"/><path d="M162 176c-.554 0-1 .446-1 1v9c0 .554.446 1 1 1h8v-3h-7v-7h10v5h2v-5c0-.554-.446-1-1-1zm.5 9h1a.499.499 0 1 1 0 1h-1a.499.499 0 1 1 0-1z"/><rect height="2" ry=".952" width="14" x="161" y="173"/><path d="M161 174h14v1h-14z"/><path d="M166 177h1v7h-1z" opacity=".5"/><path d="M171 183v5h5v-5h-4zm1 1h1v1h1v-1h1v2h-1v1h-1v-1h-1v-1z"/></g></svg>