<svg height="128" width="128" xmlns="http://www.w3.org/2000/svg"><linearGradient id="a" gradientUnits="userSpaceOnUse" x1="16" x2="112" y1="68" y2="68"><stop offset="0" stop-color="#5e5c64"/><stop offset=".042" stop-color="#9a9996"/><stop offset=".083" stop-color="#5e5c64"/><stop offset=".917" stop-color="#5e5c64"/><stop offset=".958" stop-color="#9a9996"/><stop offset="1" stop-color="#5e5c64"/></linearGradient><g stroke-width="4"><rect fill="url(#a)" height="104" ry="4" width="96" x="16" y="16"/><rect fill="#9a9996" height="104" ry="4" width="96" x="16" y="8"/><rect fill="#77767b" height="80" ry="4" width="80" x="24" y="16"/><rect fill="#c0bfbc" height="76" ry="4" width="80" x="24" y="20"/><path d="M24 72h80v4H24z" fill="#e01b24"/><path d="M26 102a2 2 0 0 0-2 2 2 2 0 0 0 2 2 2 2 0 0 0 2-2 2 2 0 0 0-2-2z" fill="#5e5c64"/><rect fill="#5e5c64" height="8" ry="2" width="4" x="24" y="100"/><circle cx="26" cy="106" fill="#33d17a" r="2"/><path d="M34 102a2 2 0 0 0-2 2 2 2 0 0 0 2 2 2 2 0 0 0 2-2 2 2 0 0 0-2-2z" fill="#5e5c64"/><rect fill="#5e5c64" height="8" ry="2" width="4" x="32" y="100"/><path d="M34 104a2 2 0 0 0-2 2 2 2 0 0 0 2 2 2 2 0 0 0 2-2 2 2 0 0 0-2-2z" fill="#f6d32d"/><path d="M36 24h56v64H36z" fill="#ececec"/><path d="M40 28h48v4H40zm0 8h48v4H40zm0 16h48v4H40zm0 8h48v4H40zm0-16h32v4H40zm0 24h20v4H40z" fill="#c0bfbc"/><path d="M36 72h56v4H36z" fill="#fbbeb8"/></g></svg>